<svg width="26" height="37" viewBox="0 0 26 37" fill="none" xmlns="http://www.w3.org/2000/svg">
<g clip-path="url(#clip0_397_11)">
<path d="M3.17157e-06 12.791C-0.00118021 11.1109 0.328806 9.44694 0.971195 7.89453C1.61358 6.34212 2.55567 4.93165 3.74366 3.74366C4.93165 2.55567 6.34237 1.61358 7.89478 0.971195C9.44719 0.328806 11.1109 -0.00118021 12.791 3.17157e-06C14.4711 -0.00118021 16.1348 0.328806 17.6873 0.971195C19.2397 1.61358 20.6501 2.55567 21.8381 3.74366C23.0261 4.93165 23.9685 6.34212 24.6108 7.89453C25.2532 9.44694 25.5832 11.1109 25.582 12.791C25.582 22.385 12.791 36.5469 12.791 36.5469C12.791 36.5469 3.17157e-06 22.385 3.17157e-06 12.791Z" fill="#FF0000"/>
</g>
<defs>
<clipPath id="clip0_397_11">
<rect width="25.582" height="36.546" fill="white"/>
</clipPath>
</defs>
</svg>
